<?xml version="1.0" encoding="UTF-8"?>
<svg width="80px" height="80px" viewBox="0 0 80 80" version="1.1" xmlns="http://www.w3.org/2000/svg" xmlns:xlink="http://www.w3.org/1999/xlink">
    <!-- Generator: Sketch 57.1 (83088) - https://sketch.com -->
    <title>icon</title>
    <desc>Created with Sketch.</desc>
    <defs>
        <linearGradient x1="217.868056%" y1="385.551223%" x2="-840.329861%" y2="385.551223%" id="linearGradient-1">
            <stop stop-color="#FF9D62" offset="0%"></stop>
            <stop stop-color="#C53902" offset="100%"></stop>
        </linearGradient>
        <linearGradient x1="217.868056%" y1="385.551223%" x2="-840.329861%" y2="385.551223%" id="linearGradient-2">
            <stop stop-color="#FF9D62" offset="0%"></stop>
            <stop stop-color="#C53902" offset="100%"></stop>
        </linearGradient>
        <linearGradient x1="217.868056%" y1="385.551223%" x2="-840.329861%" y2="385.551223%" id="linearGradient-3">
            <stop stop-color="#FF9D62" offset="0%"></stop>
            <stop stop-color="#C53902" offset="100%"></stop>
        </linearGradient>
        <linearGradient x1="217.868056%" y1="385.551223%" x2="-840.329861%" y2="385.551223%" id="linearGradient-4">
            <stop stop-color="#FF9D62" offset="0%"></stop>
            <stop stop-color="#C53902" offset="100%"></stop>
        </linearGradient>
        <linearGradient x1="217.868056%" y1="385.551223%" x2="-840.329861%" y2="385.551223%" id="linearGradient-5">
            <stop stop-color="#FF9D62" offset="0%"></stop>
            <stop stop-color="#C53902" offset="100%"></stop>
        </linearGradient>
    </defs>
    <g id="icon" stroke="none" stroke-width="1" fill="none" fill-rule="evenodd">
        <g id="noun_creativity_1068341" fill-rule="nonzero">
            <g id="Group">
                <path d="M66.6666667,16 L70.8333333,11.8333333 C71.5,11.1666667 71.5,10.1666667 70.8333333,9.5 C70.1666667,8.83333333 69.1666667,8.83333333 68.5,9.5 L64.3333333,13.6666667 C63.6666667,14.3333333 63.6666667,15.3333333 64.3333333,16 C65.1666667,16.8333333 66.3333333,16.3333333 66.6666667,16 Z" id="Path" fill="url(#linearGradient-1)"></path>
                <path d="M66.6666667,47.8333333 C66,47.1666667 65,47.1666667 64.3333333,47.8333333 C63.6666667,48.5 63.6666667,49.5 64.3333333,50.1666667 L68.5,54.3333333 C69.6666667,55.3333333 70.5,54.6666667 70.8333333,54.3333333 C71.5,53.6666667 71.5,52.6666667 70.8333333,52 L66.6666667,47.8333333 Z" id="Path" fill="url(#linearGradient-2)"></path>
                <path d="M30,16 C31,16.8333333 32,16.3333333 32.3333333,16 C33,15.3333333 33,14.3333333 32.3333333,13.6666667 L28.1666667,9.5 C27.5,8.83333333 26.5,8.83333333 25.8333333,9.5 C25.1666667,10.1666667 25.1666667,11.1666667 25.8333333,11.8333333 L30,16 Z" id="Path" fill="url(#linearGradient-1)"></path>
                <path d="M78.3333333,30.1666667 L72.5,30.1666667 C71.5,30.1666667 70.8333333,30.8333333 70.8333333,31.8333333 C70.8333333,32.8333333 71.5,33.5 72.5,33.5 L78.3333333,33.5 C79.3333333,33.5 80,32.8333333 80,31.8333333 C80,30.8333333 79.3333333,30.1666667 78.3333333,30.1666667 Z" id="Path" fill="url(#linearGradient-3)"></path>
                <path d="M48.3333333,9.33333333 C49.3333333,9.33333333 50,8.66666667 50,7.66666667 L50,1.83333333 C50,0.833333333 49.3333333,0.166666667 48.3333333,0.166666667 C47.3333333,0.166666667 46.6666667,0.833333333 46.6666667,1.83333333 L46.6666667,7.66666667 C46.6666667,8.66666667 47.3333333,9.33333333 48.3333333,9.33333333 Z" id="Path" fill="url(#linearGradient-4)"></path>
                <path d="M60,17 C53.5,11.6666667 43.8333333,11.5 37,16.5 C32.5,19.8333333 29.6666667,24.8333333 29.1666667,30.3333333 C28.6666667,35.3333333 26.5,40 23,43.5 C22.5,44 21.6666667,45.1666667 22.5,46.8333333 L6.16666667,63.1666667 C6,63.3333333 5.66666667,63.5 5.66666667,63.8333333 L0.333333333,77.5 C-0.166666667,78.5 0.833333333,80.1666667 2.5,79.6666667 L16.1666667,74.3333333 C16.5,74.1666667 16.6666667,74 16.8333333,73.8333333 L33.1666667,57.5 C35,58.5 36.6666667,57.6666667 37.3333333,57 C41,53.3333333 45,51.6666667 49.8333333,51.3333333 C54.3333333,51 58.5,48.8333333 61.8333333,45.8333333 C67.3333333,40.5 71.6666667,26.3333333 60,17 Z M4.66666667,75.1666667 L7.66666667,67.5 L12.3333333,72.1666667 L4.66666667,75.1666667 Z M15.3333333,70.3333333 L9.5,64.5 L24.6666667,49.3333333 L30.5,55.1666667 L15.3333333,70.3333333 Z M59.3333333,43.1666667 C56.5,45.6666667 53.1666667,47.5 49.3333333,47.6666667 C43.6666667,48.1666667 38.6666667,50.1666667 34.5,54.5 L31.1666667,51.1666667 L42.5,39.8333333 L45,42.3333333 C46,43.1666667 47,42.6666667 47.3333333,42.3333333 C48,41.6666667 48,40.6666667 47.3333333,40 L40,32.6666667 C39.3333333,32 38.3333333,32 37.6666667,32.6666667 C37,33.3333333 37,34.3333333 37.6666667,35 L40.1666667,37.5 L28.8333333,48.8333333 L25.5,45.5 C29.3333333,41.5 31.8333333,36.1666667 32.3333333,30.5 C32.6666667,25.8333333 35,21.8333333 38.8333333,19 C44.5,14.8333333 52.5,15 57.8333333,19.5 C67.5,27.3333333 64,38.8333333 59.3333333,43.1666667 Z" id="Shape" fill="url(#linearGradient-5)"></path>
            </g>
        </g>
    </g>
</svg>