<?xml version="1.0" encoding="UTF-8"?>
<svg width="80px" height="80px" viewBox="0 0 80 80" version="1.1" xmlns="http://www.w3.org/2000/svg" xmlns:xlink="http://www.w3.org/1999/xlink">
    <!-- Generator: Sketch 57.1 (83088) - https://sketch.com -->
    <title>develop</title>
    <desc>Created with Sketch.</desc>
    <defs>
        <linearGradient x1="217.868056%" y1="385.551223%" x2="-840.329861%" y2="385.551223%" id="linearGradient-1">
            <stop stop-color="#FF9D62" offset="0%"></stop>
            <stop stop-color="#C53902" offset="100%"></stop>
        </linearGradient>
    </defs>
    <g id="develop" stroke="none" stroke-width="1" fill="none" fill-rule="evenodd">
        <g id="noun_repair-tool_1068169" fill="url(#linearGradient-1)" fill-rule="nonzero">
            <path d="M9.46938776,19.1020408 L2.93877551,12.5714286 C1.95918367,11.5918367 0.326530612,12.244898 0.163265306,13.5510204 C-0.489795918,18.4489796 1.14285714,23.5102041 4.57142857,26.9387755 C7.83673469,30.2040816 12.4081633,31.8367347 16.9795918,31.5102041 L24.4897959,39.0204082 L6.20408163,57.3061224 C3.91836735,59.4285714 0.979591837,65.4693878 6.20408163,71.0204082 L7.34693878,72.1632653 C9.14285714,73.9591837 15.3469388,77.5510204 21.0612245,72.1632653 L39.5102041,53.877551 L47.0204082,61.3877551 C46.6938776,65.9591837 48.1632653,70.5306122 51.5918367,73.9591837 C54.5306122,76.8979592 58.9387755,79.0204082 64.9795918,78.3673469 C66.2857143,78.2040816 66.9387755,76.5714286 65.9591837,75.5918367 L59.4285714,69.0612245 L61.3877551,61.5510204 L69.0612245,59.4285714 L75.5918367,65.9591837 C76.5714286,66.9387755 78.2040816,66.2857143 78.3673469,64.9795918 C79.0204082,60.0816327 77.3877551,55.0204082 73.9591837,51.5918367 C70.6938776,48.3265306 66.122449,46.6938776 61.5510204,47.0204082 L47.6734694,33.1428571 L61.7142857,19.1020408 L67.9183673,19.1020408 C68.5714286,19.1020408 69.0612245,18.7755102 69.3877551,18.2857143 L74.6122449,9.14285714 C74.9387755,8.48979592 74.9387755,7.67346939 74.2857143,7.18367347 L71.3469388,4.24489796 C70.8571429,3.75510204 70.0408163,3.59183673 69.3877551,3.91836735 L60.244898,9.14285714 C59.755102,9.46938776 59.4285714,9.95918367 59.4285714,10.6122449 L59.4285714,16.8163265 L45.2244898,31.0204082 L31.5102041,17.3061224 C31.8367347,12.7346939 30.2040816,8.16326531 26.9387755,4.89795918 C23.3469388,1.30612245 18.4489796,-0.326530612 13.5510204,0.489795918 C12.244898,0.326530612 11.5918367,1.95918367 12.5714286,2.93877551 L19.1020408,9.46938776 L17.1428571,17.1428571 L9.46938776,19.1020408 Z M62.5306122,11.5918367 L69.7142857,7.51020408 L70.8571429,8.65306122 L66.7755102,15.8367347 L62.5306122,15.8367347 L62.5306122,11.5918367 Z M18.7755102,69.877551 C16.3265306,72.3265306 12.0816327,72.3265306 9.63265306,69.877551 L8.48979592,68.7346939 C7.02040816,67.4285714 5.06122449,63.1836735 8.48979592,59.5918367 L26.9387755,41.1428571 L37.2244898,51.4285714 L18.7755102,69.877551 Z M20.0816327,18.9387755 L22.5306122,9.46938776 C22.6938776,8.97959184 22.5306122,8.32653061 22.0408163,7.83673469 L17.6326531,3.42857143 C20.244898,3.75510204 22.5306122,5.06122449 24.4897959,6.85714286 C27.2653061,9.63265306 28.5714286,13.5510204 28.0816327,17.4693878 C28.0816327,17.9591837 28.244898,18.4489796 28.5714286,18.7755102 L59.5918367,49.7959184 C59.9183673,50.122449 60.4081633,50.2857143 60.8979592,50.2857143 C64.8163265,49.7959184 68.5714286,51.1020408 71.3469388,53.877551 C73.1428571,55.6734694 74.4489796,58.122449 74.7755102,60.7346939 L70.3673469,56.3265306 C69.877551,55.8367347 69.3877551,55.6734694 68.7346939,55.8367347 L59.2653061,58.4489796 C58.7755102,58.6122449 58.2857143,59.1020408 58.122449,59.5918367 L55.6734694,69.0612245 C55.5102041,69.5510204 55.6734694,70.2040816 56.1632653,70.6938776 L60.5714286,75.1020408 C57.9591837,74.7755102 55.6734694,73.4693878 53.7142857,71.6734694 C50.9387755,68.8979592 49.6326531,64.9795918 50.122449,61.0612245 C50.122449,60.5714286 49.9591837,60.0816327 49.6326531,59.755102 L28.0816327,37.7142857 C28.0816327,37.7142857 28.0816327,37.7142857 28.0816327,37.7142857 C28.0816327,37.7142857 28.0816327,37.7142857 28.0816327,37.7142857 L18.9387755,28.5714286 C18.6122449,28.244898 18.2857143,28.0816327 17.7959184,28.0816327 C17.7959184,28.0816327 17.6326531,28.0816327 17.6326531,28.0816327 C13.7142857,28.5714286 9.95918367,27.2653061 7.18367347,24.4897959 C5.3877551,22.6938776 4.08163265,20.244898 3.75510204,17.6326531 L8.16326531,22.0408163 C8.65306122,22.5306122 9.14285714,22.6938776 9.79591837,22.5306122 L19.2653061,19.9183673 C19.4285714,19.9183673 19.9183673,19.4285714 20.0816327,18.9387755 Z" id="Shape"></path>
        </g>
    </g>
</svg>