<?xml version="1.0" encoding="UTF-8"?>
<svg width="80px" height="80px" viewBox="0 0 80 80" version="1.1" xmlns="http://www.w3.org/2000/svg" xmlns:xlink="http://www.w3.org/1999/xlink">
    <!-- Generator: Sketch 57.1 (83088) - https://sketch.com -->
    <title>research</title>
    <desc>Created with Sketch.</desc>
    <defs>
        <linearGradient x1="217.868056%" y1="385.551223%" x2="-840.329861%" y2="385.551223%" id="linearGradient-1">
            <stop stop-color="#FF9D62" offset="0%"></stop>
            <stop stop-color="#C53902" offset="100%"></stop>
        </linearGradient>
        <linearGradient x1="217.868056%" y1="385.551223%" x2="-840.329861%" y2="385.551223%" id="linearGradient-2">
            <stop stop-color="#FF9D62" offset="0%"></stop>
            <stop stop-color="#C53902" offset="100%"></stop>
        </linearGradient>
        <linearGradient x1="217.868056%" y1="385.551223%" x2="-840.329861%" y2="385.551223%" id="linearGradient-3">
            <stop stop-color="#FF9D62" offset="0%"></stop>
            <stop stop-color="#C53902" offset="100%"></stop>
        </linearGradient>
    </defs>
    <g id="research" stroke="none" stroke-width="1" fill="none" fill-rule="evenodd">
        <g id="noun_magnifier_1068159" transform="translate(1.000000, 1.000000)" fill-rule="nonzero">
            <g id="Group">
                <path d="M59.32,13.76 C60.12,14.4 61.08,15.04 61.72,15.68 C62.04,16 63,16.48 63.96,15.68 C64.6,15.04 64.6,14.08 63.96,13.44 C63,12.48 62.04,11.68 61.08,11.04 C60.28,10.56 59.32,10.72 58.84,11.52 C58.36,12.16 58.52,13.28 59.32,13.76 Z" id="Path" fill="url(#linearGradient-1)"></path>
                <path d="M40.92,15.68 C44.28,12.32 49.08,10.88 53.72,11.52 C54.52,11.68 55.48,11.04 55.48,10.24 C55.64,9.44 55,8.48 54.2,8.48 C48.44,7.52 42.68,9.44 38.68,13.44 C38.04,14.08 38.04,15.2 38.68,15.68 C39.64,16.48 40.6,16 40.92,15.68 Z" id="Path" fill="url(#linearGradient-2)"></path>
                <path d="M14.68,74.4 L39.64,49.44 C43.16,51.2 47.16,52.16 51.32,52.16 C65.72,52.16 77.4,40.48 77.4,26.08 C77.4,11.68 65.72,0 51.32,0 C36.92,0 25.24,11.68 25.24,26.08 C25.24,30.24 26.2,34.24 27.96,37.76 L3,62.72 C-1.64,67.84 1.4,72.8 3,74.4 C4.6,76 9.72,79.04 14.68,74.4 Z M51.32,3.2 C63.96,3.2 74.2,13.44 74.2,26.08 C74.2,38.72 63.96,48.96 51.32,48.96 C38.68,48.96 28.44,38.72 28.44,26.08 C28.44,13.44 38.68,3.2 51.32,3.2 Z M5.24,64.96 L29.56,40.64 C31.48,43.52 33.88,45.92 36.76,47.84 L12.44,72.16 C10.52,74.08 7.16,74.08 5.24,72.16 C4.28,71.2 2.52,68 5.24,64.96 Z" id="Shape" fill="url(#linearGradient-3)"></path>
            </g>
        </g>
    </g>
</svg>